<?xml version="1.0" standalone="no"?>
<!DOCTYPE svg PUBLIC "-//W3C//DTD SVG 20010904//EN"
 "http://www.w3.org/TR/2001/REC-SVG-20010904/DTD/svg10.dtd">
<svg version="1.0" xmlns="http://www.w3.org/2000/svg"
 width="1024.000000pt" height="1024.000000pt" viewBox="0 0 1024.000000 1024.000000"
 preserveAspectRatio="xMidYMid meet">

<g transform="translate(0.000000,1024.000000) scale(0.100000,-0.100000)"
fill="#000000" stroke="none">
<path d="M1570 7115 l0 -1295 40 0 c33 0 40 -3 40 -20 0 -20 5 -20 168 -18
l167 3 3 1128 2 1127 1235 0 1235 0 0 -465 0 -465 -30 0 -30 0 0 -135 0 -135
-95 0 -95 0 0 -165 0 -165 -85 0 -85 0 -2 -162 -3 -163 -127 -3 -128 -3 0 -34
0 -35 170 0 170 0 0 165 0 165 90 0 90 0 0 165 0 165 80 0 80 0 0 -305 0 -305
-95 0 -95 0 0 -165 0 -165 35 0 c27 0 35 -4 35 -18 0 -16 18 -17 267 -15 l266
2 1 1290 1 1291 -42 0 c-32 0 -43 4 -43 15 0 13 -186 15 -1610 15 l-1610 0 0
-1295z"/>
<path d="M6730 7275 l0 -1125 -630 0 -630 0 0 -165 0 -165 40 0 c33 0 40 -3
40 -20 0 -20 7 -20 1445 -20 l1445 0 0 170 0 170 -40 0 c-29 0 -40 4 -40 15 0
14 -69 15 -582 15 -321 0 -593 0 -606 0 l-22 0 2 463 3 462 605 2 605 3 3 165
2 165 -40 0 c-29 0 -40 4 -40 15 0 13 -70 15 -570 15 l-570 0 0 465 0 465 -45
0 c-35 0 -43 3 -39 15 5 13 -17 15 -165 15 l-171 0 0 -1125z"/>
<path d="M2820 7565 l0 -135 -129 0 -128 0 -7 -46 c-3 -26 -6 -96 -6 -155 l0
-109 -95 0 -95 0 0 -135 0 -135 40 0 40 0 0 95 0 95 100 0 100 0 0 160 0 160
130 0 130 0 0 170 0 170 -40 0 -40 0 0 -135z"/>
<path d="M4040 7585 c0 -63 -1 -118 -2 -122 -2 -5 16 -9 40 -11 l42 -3 0 125
0 126 -40 0 -40 0 0 -115z"/>
<path d="M3610 7425 l0 -135 -85 0 -85 0 0 -165 0 -165 -55 0 -55 0 0 -165 0
-165 -60 0 -60 0 0 -155 0 -155 -87 -2 c-49 -1 -106 -2 -128 -2 -39 -1 -40 -2
-43 -38 l-3 -38 175 0 176 0 0 160 0 160 60 0 60 0 0 165 0 165 55 0 55 0 0
165 0 165 80 -3 80 -2 0 173 0 172 -40 0 -40 0 0 -135z"/>
<path d="M3780 7395 l0 -35 50 0 50 0 0 35 0 35 -50 0 -50 0 0 -35z"/>
<path d="M4227 7383 c-16 -4 -17 -16 -15 -106 l3 -102 40 0 40 0 0 104 c0 104
0 104 -25 106 -14 1 -33 0 -43 -2z"/>
<path d="M3950 7080 l0 -40 55 0 55 0 0 40 0 40 -55 0 -55 0 0 -40z"/>
<path d="M2100 6805 l0 -35 60 0 60 0 0 35 0 35 -60 0 -60 0 0 -35z"/>
<path d="M2554 6767 c-2 -7 -3 -65 -2 -128 l3 -114 43 -3 42 -3 0 130 0 131
-40 0 c-24 0 -43 -5 -46 -13z"/>
<path d="M2300 6491 c0 -11 -3 -26 -6 -35 -5 -14 4 -16 60 -16 l66 0 0 35 0
35 -60 0 c-52 0 -60 -2 -60 -19z"/>
<path d="M2750 6315 l0 -135 -130 0 -130 0 0 -35 0 -35 175 0 175 0 0 170 0
170 -45 0 -45 0 0 -135z"/>
<path d="M2130 5180 l0 -320 -239 0 -239 0 -6 -37 c-7 -43 -7 -210 1 -265 4
-36 7 -38 39 -38 24 0 34 -5 34 -15 0 -13 34 -15 250 -15 l250 0 0 155 0 155
135 0 135 0 0 -200 0 -200 34 0 c25 0 35 -5 39 -20 5 -19 14 -20 171 -20 l166
0 0 160 0 160 29 0 c20 0 30 -6 34 -20 5 -19 14 -20 306 -20 l301 0 0 170 0
170 -39 0 c-27 0 -41 5 -45 16 -6 15 -18 16 -96 11 l-90 -7 0 240 0 240 -40 0
c-22 0 -40 5 -40 10 0 7 -188 10 -545 10 l-545 0 0 -320z m754 -84 c4 -24 6
-89 5 -145 l-1 -101 -39 0 c-31 0 -37 3 -32 16 5 13 -11 15 -131 12 l-136 -3
0 133 0 132 164 0 164 0 6 -44z m-696 -263 c-10 -2 -26 -2 -35 0 -10 3 -2 5
17 5 19 0 27 -2 18 -5z"/>
<path d="M5690 4845 l0 -645 -30 0 -30 0 0 -310 0 -309 -82 -3 -83 -3 -3 -332
-2 -333 40 0 c29 0 40 -4 40 -15 0 -13 26 -15 170 -15 l170 0 0 325 0 325 63
1 c34 1 71 2 82 3 19 1 20 9 23 314 l2 312 25 0 25 0 0 205 0 205 456 0 456 0
-6 -22 c-3 -13 -6 -58 -6 -101 l0 -78 -347 1 c-192 1 -358 1 -370 1 -23 -1
-23 -2 -23 -166 l0 -165 41 0 c32 0 40 -3 35 -15 -5 -13 36 -15 332 -15 l337
0 -3 -105 -3 -105 -440 0 -439 0 0 -445 0 -445 40 0 c29 0 40 -4 40 -15 0 -13
128 -15 1090 -15 l1090 0 -2 448 -3 447 -37 3 c-21 2 -38 7 -38 13 0 5 -172 9
-440 9 l-440 0 0 105 0 105 400 0 400 0 -2 168 -3 167 -42 3 c-24 2 -43 7 -43
13 0 5 -139 9 -355 9 l-355 0 0 100 0 100 510 0 510 0 0 450 0 450 -40 0 c-22
0 -40 5 -40 10 0 7 -452 10 -1335 10 l-1335 0 0 -645z m2337 188 l-2 -98 -962
-3 -963 -2 0 93 c0 52 3 97 7 100 3 4 437 7 964 7 l959 0 -3 -97z m-67 -1693
l0 -100 -710 0 -710 0 0 100 0 100 710 0 710 0 0 -100z"/>
<path d="M3620 4200 l0 -1280 35 0 c24 0 35 -5 35 -15 0 -13 26 -15 170 -15
l170 0 0 1115 0 1115 215 0 215 0 0 -120 0 -120 -75 0 -75 0 0 -145 0 -145
-75 0 -75 0 2 -167 3 -168 30 0 c19 0 33 -6 37 -17 6 -16 22 -18 118 -18 l110
0 0 -210 0 -210 -160 0 -160 0 0 -165 0 -165 35 0 c24 0 35 -5 35 -15 0 -13
26 -15 170 -15 l170 0 0 75 0 75 163 0 163 0 1 335 2 335 -43 0 c-31 0 -46 5
-50 16 -5 14 -21 16 -109 13 l-102 -4 -3 113 -3 112 76 0 75 0 0 150 0 149 34
6 c18 4 48 4 67 1 19 -3 39 -2 46 2 8 5 11 96 9 322 l-1 315 -38 -2 c-26 -2
-39 2 -43 12 -5 13 -81 15 -590 15 l-584 0 0 -1280z"/>
<path d="M1980 4165 l0 -165 40 0 c33 0 40 -3 40 -20 0 -20 7 -20 478 -20
l479 0 -1 -92 -1 -93 -117 -3 -117 -3 -3 -117 -3 -117 -66 -1 c-37 -1 -72 -5
-78 -8 -8 -5 -11 19 -11 83 l0 91 -40 0 c-29 0 -40 4 -40 15 0 13 -22 15 -162
13 l-163 -3 -3 -167 -2 -167 35 4 c29 2 35 0 35 -16 0 -18 9 -19 125 -19 l125
0 0 -50 c0 -44 -3 -50 -23 -55 -13 -4 -27 -5 -33 -4 -5 1 -21 1 -36 0 l-28 -1
0 -165 0 -165 40 0 c29 0 40 -4 40 -15 0 -13 43 -15 325 -15 l325 0 0 170 0
170 -46 0 c-27 0 -43 4 -39 10 4 6 -15 10 -49 10 l-56 0 0 75 0 75 120 0 120
0 0 125 0 125 120 0 120 0 0 325 0 325 -40 0 c-29 0 -40 4 -40 15 0 13 -83 15
-685 15 l-685 0 0 -165z"/>
<path d="M5435 2253 c-72 -7 -98 -16 -131 -45 -69 -61 -100 -162 -91 -297 13
-192 83 -274 236 -274 117 0 185 55 217 174 27 105 14 262 -30 347 -30 58
-123 102 -201 95z m56 -113 c40 -22 53 -68 53 -195 0 -103 -3 -126 -20 -155
-38 -66 -126 -63 -158 5 -22 45 -22 250 -1 300 20 49 79 69 126 45z"/>
<path d="M5408 1989 c-22 -13 -24 -62 -2 -83 16 -16 50 -21 78 -10 19 7 22 74
4 92 -15 15 -57 15 -80 1z"/>
<path d="M4310 2228 c-43 -22 -110 -96 -110 -122 0 -18 112 -54 118 -38 10 30
49 63 82 68 50 8 90 -24 90 -74 0 -51 -36 -98 -142 -184 -50 -40 -102 -82
-115 -93 -21 -18 -24 -27 -21 -80 2 -33 6 -59 11 -57 4 1 102 2 217 2 l210 0
0 55 0 54 -137 3 -138 3 65 50 c161 123 194 171 188 270 -7 112 -72 164 -203
165 -54 0 -81 -5 -115 -22z"/>
<path d="M4840 2239 c-112 -45 -168 -233 -125 -417 30 -128 94 -181 221 -183
167 -3 244 110 231 341 -7 139 -49 221 -132 256 -39 16 -157 18 -195 3z m134
-99 c46 -17 60 -62 60 -195 0 -96 -3 -127 -17 -153 -36 -66 -127 -67 -159 -2
-24 46 -26 253 -3 305 20 48 65 66 119 45z"/>
<path d="M4896 1984 c-23 -22 -20 -71 3 -84 26 -14 64 -13 79 2 20 20 15 76
-7 88 -28 14 -57 12 -75 -6z"/>
<path d="M6365 2236 c-77 -34 -122 -118 -132 -244 -10 -133 21 -244 84 -304
39 -37 74 -48 151 -48 152 1 220 79 230 267 9 168 -33 279 -120 322 -52 25
-164 29 -213 7z m169 -129 c19 -25 21 -42 21 -155 0 -152 -11 -187 -62 -201
-21 -6 -44 -6 -58 -1 -44 17 -57 52 -61 162 -6 181 15 231 94 226 36 -2 49 -9
66 -31z"/>
<path d="M6787 2243 c-16 -4 -17 -25 -17 -298 1 -161 3 -294 5 -296 2 -2 33
-2 69 -1 l66 4 0 80 c0 64 4 88 21 114 11 19 24 34 27 34 4 0 34 -52 67 -115
33 -63 64 -115 70 -116 72 -4 135 -2 135 5 0 5 -38 80 -85 167 -47 86 -85 162
-85 169 0 6 33 58 73 113 40 56 77 108 81 116 13 20 -12 31 -72 31 -61 0 -61
1 -163 -149 l-69 -103 0 120 c0 116 -1 120 -22 126 -26 6 -74 6 -101 -1z"/>
</g>
</svg>
