<?xml version="1.0" standalone="no"?>
<!DOCTYPE svg PUBLIC "-//W3C//DTD SVG 20010904//EN"
 "http://www.w3.org/TR/2001/REC-SVG-20010904/DTD/svg10.dtd">
<svg version="1.0" xmlns="http://www.w3.org/2000/svg"
 viewBox="0 0 1024.000000 1024.000000"
 preserveAspectRatio="xMidYMid meet">

<g transform="translate(0.000000,1024.000000) scale(0.100000,-0.100000)"
>
<path d="M1260 5255 l0 -3225 355 0 355 0 0 2865 0 2865 3145 0 3145 0 0
-2505 0 -2505 -275 0 -275 0 0 -360 0 -360 630 0 630 0 0 3225 0 3225 -3855 0
-3855 0 0 -3225z"/>
<path d="M3350 6545 l0 -355 -275 0 -275 0 0 -360 0 -360 -215 0 -215 0 0
-355 0 -355 180 0 180 0 0 -360 0 -360 310 0 310 0 0 -355 0 -355 355 0 355 0
0 355 0 355 -310 0 -310 0 0 360 0 360 -180 0 -180 0 0 355 0 355 215 0 215 0
0 360 0 360 275 0 275 0 0 355 0 355 -355 0 -355 0 0 -355z"/>
<path d="M6200 6545 l0 -355 265 0 265 0 0 -360 0 -360 215 0 215 0 0 -355 0
-355 -215 0 -215 0 0 -360 0 -360 -265 0 -265 0 0 -355 0 -355 360 0 360 0 0
355 0 355 260 0 260 0 0 360 0 360 215 0 215 0 0 355 0 355 -215 0 -215 0 0
360 0 360 -260 0 -260 0 0 355 0 355 -360 0 -360 0 0 -355z"/>
<path d="M5130 6255 l0 -355 -95 0 -95 0 0 -355 0 -355 -140 0 -140 0 0 -360
0 -360 -145 0 -145 0 0 -355 0 -355 355 0 355 0 0 355 0 355 145 0 145 0 0
360 0 360 140 0 140 0 0 355 0 355 100 0 100 0 0 355 0 355 -360 0 -360 0 0
-355z"/>
</g>
</svg>
